<?xml version="1.0" standalone="no"?>
<!DOCTYPE svg PUBLIC "-//W3C//DTD SVG 20010904//EN"
 "http://www.w3.org/TR/2001/REC-SVG-20010904/DTD/svg10.dtd">
<svg version="1.0" xmlns="http://www.w3.org/2000/svg"
 width="334.000000pt" height="181.000000pt" viewBox="0 0 334.000000 181.000000"
 preserveAspectRatio="xMidYMid meet">

<g transform="translate(0.000000,181.000000) scale(0.100000,-0.100000)"
fill="#000000" stroke="none">
<path d="M245 1703 c6 -5 330 -189 720 -408 391 -219 714 -401 718 -405 4 -4
-319 -190 -718 -415 -399 -224 -723 -410 -721 -412 3 -3 330 179 728 403 398
224 728 407 733 407 6 0 319 -174 696 -386 407 -229 697 -387 712 -387 16 0
34 10 46 26 21 26 21 33 21 759 0 726 0 733 -21 759 -12 16 -30 26 -46 26 -15
0 -305 -158 -712 -387 -377 -212 -690 -386 -696 -386 -5 0 -332 181 -725 403
-684 385 -758 426 -735 403z m2903 -55 c17 -17 17 -1509 0 -1526 -7 -7 -22
-12 -34 -12 -22 0 -1385 763 -1385 775 0 13 1356 773 1382 774 14 1 30 -4 37
-11z"/>
</g>
</svg>
