<?xml version="1.0" standalone="no"?>
<!DOCTYPE svg PUBLIC "-//W3C//DTD SVG 20010904//EN"
 "http://www.w3.org/TR/2001/REC-SVG-20010904/DTD/svg10.dtd">
<svg version="1.0" xmlns="http://www.w3.org/2000/svg"
 width="170.000000pt" height="77.000000pt" viewBox="0 0 170.000000 77.000000"
 preserveAspectRatio="xMidYMid meet">

<g transform="translate(0.000000,77.000000) scale(0.100000,-0.100000)"
fill="#000000" stroke="none">
<path d="M1186 614 c-38 -53 -95 -187 -103 -245 -5 -37 10 -79 28 -79 6 0 24
11 41 25 34 28 48 32 48 10 0 -17 30 -35 58 -35 23 0 69 51 78 86 5 17 13 24
31 24 21 0 23 -3 14 -14 -7 -8 -11 -30 -9 -48 2 -28 7 -34 30 -36 21 -3 35 5
58 30 16 18 30 26 30 19 0 -7 -21 -34 -46 -59 -64 -63 -111 -182 -71 -182 26
0 85 76 108 139 21 59 28 67 81 100 71 44 76 61 8 26 -55 -28 -57 -27 -36 13
20 41 28 72 18 72 -5 0 -14 -10 -20 -22 l-11 -23 0 23 c-1 33 -29 39 -70 15
-57 -32 -85 -35 -114 -13 -41 33 -63 25 -135 -45 -36 -36 -72 -65 -80 -65 -19
0 -7 56 21 95 68 94 84 126 91 171 9 69 -6 75 -48 18z m-7 -98 c-29 -50 -33
-45 -7 10 13 25 24 41 26 36 1 -5 -7 -26 -19 -46z m129 -116 c3 -28 -32 -74
-51 -67 -19 6 -20 63 -1 81 23 23 48 16 52 -14z m192 25 c0 -9 -72 -85 -81
-85 -18 0 -8 27 22 58 27 28 59 42 59 27z m-51 -187 c-16 -31 -49 -73 -49 -63
0 14 51 97 57 92 2 -3 -1 -16 -8 -29z"/>
<path d="M150 530 c0 -113 1 -120 20 -120 19 0 20 7 20 120 0 113 -1 120 -20
120 -19 0 -20 -7 -20 -120z"/>
<path d="M250 530 c0 -113 1 -120 20 -120 19 0 20 7 20 120 0 113 -1 120 -20
120 -19 0 -20 -7 -20 -120z"/>
<path d="M350 530 c0 -113 1 -120 20 -120 19 0 20 7 20 120 0 113 -1 120 -20
120 -19 0 -20 -7 -20 -120z"/>
<path d="M440 630 c0 -19 7 -20 120 -20 113 0 120 1 120 20 0 19 -7 20 -120
20 -113 0 -120 -1 -120 -20z"/>
<path d="M955 634 c-16 -9 -43 -22 -58 -31 -40 -20 -27 -27 18 -9 20 9 35 12
33 8 -2 -4 -33 -69 -70 -145 -38 -76 -68 -142 -68 -147 0 -21 20 -8 36 23 l17
32 14 -32 c13 -32 49 -51 83 -44 34 7 70 56 84 113 5 21 1 33 -14 48 -16 16
-17 20 -5 20 25 0 65 30 81 61 18 36 18 69 -2 97 -12 18 -25 22 -67 22 -29 0
-65 -7 -82 -16z m115 -33 c22 -42 -31 -102 -102 -118 -35 -7 -36 -21 -4 -33
40 -15 50 -45 29 -81 -29 -49 -91 -54 -107 -8 -8 22 -1 41 44 120 29 52 59
104 67 117 17 28 58 29 73 3z"/>
<path d="M440 530 c0 -19 7 -20 120 -20 113 0 120 1 120 20 0 19 -7 20 -120
20 -113 0 -120 -1 -120 -20z"/>
<path d="M440 430 c0 -19 7 -20 120 -20 113 0 120 1 120 20 0 19 -7 20 -120
20 -113 0 -120 -1 -120 -20z"/>
<path d="M150 300 c0 -19 7 -20 120 -20 113 0 120 1 120 20 0 19 -7 20 -120
20 -113 0 -120 -1 -120 -20z"/>
<path d="M440 200 c0 -113 1 -120 20 -120 19 0 20 7 20 120 0 113 -1 120 -20
120 -19 0 -20 -7 -20 -120z"/>
<path d="M540 200 c0 -113 1 -120 20 -120 19 0 20 7 20 120 0 113 -1 120 -20
120 -19 0 -20 -7 -20 -120z"/>
<path d="M640 200 c0 -113 1 -120 20 -120 19 0 20 7 20 120 0 113 -1 120 -20
120 -19 0 -20 -7 -20 -120z"/>
<path d="M150 200 c0 -19 7 -20 120 -20 113 0 120 1 120 20 0 19 -7 20 -120
20 -113 0 -120 -1 -120 -20z"/>
<path d="M837 203 c-11 -10 -8 -93 3 -93 6 0 10 6 10 14 0 9 12 16 28 18 20 2
28 9 30 27 2 13 -2 28 -10 32 -16 10 -52 12 -61 2z m61 -30 c-2 -10 -13 -19
-26 -21 -17 -3 -22 2 -22 17 0 16 6 21 26 21 19 0 25 -5 22 -17z"/>
<path d="M1086 192 c-2 -4 -1 -23 3 -42 5 -24 13 -36 26 -37 11 -2 14 0 8 3
-16 7 -17 54 -2 54 8 0 8 5 -1 15 -14 16 -26 19 -34 7z"/>
<path d="M936 171 c-25 -28 -5 -63 32 -59 34 4 44 45 16 65 -23 17 -28 17 -48
-6z m52 -24 c4 -20 -25 -34 -40 -19 -15 15 -1 44 19 40 10 -2 19 -11 21 -21z"/>
<path d="M1025 177 c-21 -16 -12 -37 16 -37 10 0 19 -5 19 -11 0 -7 -10 -9
-26 -5 -17 5 -23 3 -19 -4 10 -16 52 -12 59 5 4 11 -3 19 -22 27 -26 11 -26
12 -4 16 12 2 20 8 17 13 -8 12 -18 11 -40 -4z"/>
<path d="M1150 175 c-15 -18 -5 -35 21 -35 12 0 17 -4 13 -11 -3 -6 -15 -9
-25 -6 -11 3 -19 1 -19 -5 0 -5 12 -8 27 -6 35 4 42 33 11 43 l-23 7 25 7 c22
6 23 8 7 14 -24 9 -23 9 -37 -8z"/>
<path d="M150 100 c0 -19 7 -20 120 -20 113 0 120 1 120 20 0 19 -7 20 -120
20 -113 0 -120 -1 -120 -20z"/>
</g>
</svg>
